<svg width="21" height="18" viewBox="0 0 21 18" fill="none" xmlns="http://www.w3.org/2000/svg">
<path d="M18.8808 2.09749L18.8812 2.09788C19.3953 2.60257 19.8027 3.20192 20.0803 3.86129C20.358 4.52065 20.5005 5.22726 20.5 5.94062C20.4995 6.65398 20.3559 7.36039 20.0772 8.01934C19.7986 8.67832 19.3903 9.27707 18.8754 9.78102L18.8742 9.78222L11.4249 17.1236C11.4247 17.1237 11.4246 17.1239 11.4244 17.124C11.1792 17.364 10.8459 17.5 10.4969 17.5C10.1482 17.5 9.815 17.3641 9.56975 17.1243C9.5695 17.124 9.56925 17.1238 9.56901 17.1236L9.04126 16.6017L9.02801 16.5874L9.01996 16.5786L9.0115 16.5703L2.11351 9.77406C2.11346 9.77401 2.1134 9.77395 2.11335 9.7739C1.07853 8.75332 0.499101 7.37129 0.500001 5.93223C0.500901 4.49309 1.08212 3.11169 2.11832 2.09234C3.15478 1.07274 4.56159 0.49911 6.02967 0.500001C7.49776 0.500892 8.90385 1.07623 9.93902 2.09708L9.93924 2.0973L10.1492 2.30413L10.5001 2.64971L10.851 2.30413L11.0608 2.09749C11.0608 2.09743 11.0609 2.09738 11.0609 2.09732C11.0609 2.09732 11.0609 2.09731 11.0609 2.0973C12.097 1.078 13.5031 0.504136 14.9708 0.504136C16.4385 0.504136 17.8447 1.07807 18.8808 2.09749Z" stroke="#3B3B3B"/>
</svg>
