<svg width="16" height="11" viewBox="0 0 16 11" fill="none" xmlns="http://www.w3.org/2000/svg">
<path d="M0 0.6875C0 0.307804 0.298477 0 0.666667 0H15.3333C15.7015 0 16 0.307804 16 0.6875C16 1.0672 15.7015 1.375 15.3333 1.375H0.666667C0.298477 1.375 0 1.0672 0 0.6875Z" fill="#282930"/>
<path d="M0 5.5C0 5.1203 0.298477 4.8125 0.666667 4.8125H15.3333C15.7015 4.8125 16 5.1203 16 5.5C16 5.8797 15.7015 6.1875 15.3333 6.1875H0.666667C0.298477 6.1875 0 5.8797 0 5.5Z" fill="#282930"/>
<path d="M0 10.3125C0 9.9328 0.298477 9.625 0.666667 9.625H15.3333C15.7015 9.625 16 9.9328 16 10.3125C16 10.6922 15.7015 11 15.3333 11H0.666667C0.298477 11 0 10.6922 0 10.3125Z" fill="#282930"/>
</svg>
