<svg width="34" height="38" viewBox="0 0 34 38" fill="none" xmlns="http://www.w3.org/2000/svg">
<path d="M33.8665 13.1046L27.5938 5.58315C27.5048 5.49518 27.3713 5.40721 27.2379 5.40721H23.8123C23.5454 5.40721 23.3675 5.58315 23.3675 5.84706C23.3675 6.11097 23.5454 6.28691 23.8123 6.28691H27.0599L33.1102 13.5444V36.3726C33.1102 36.8124 32.7543 37.1643 32.3095 37.1643H13.3577C12.9129 37.1643 12.557 36.8124 12.557 36.3726V13.5444L18.3848 6.55082C18.5628 6.37488 18.5183 6.06698 18.3404 5.93503C18.1624 5.75909 17.851 5.80307 17.7175 5.97901L11.7562 13.1046C11.7117 13.1925 11.6672 13.2805 11.6672 13.3685V36.3286C11.6672 37.2523 12.4235 38 13.3577 38H32.3095C33.2437 38 34 37.2523 34 36.3286V13.4125C33.9555 13.2805 33.9555 13.1925 33.8665 13.1046Z" fill="#F2AAAA"/>
<path d="M4.05984 3.29594C9.70976 -0.838641 15.938 1.09669 18.5628 3.29594C21.2321 5.53917 21.2765 8.0463 21.1431 9.01397C21.0986 9.2339 21.0986 9.40983 21.0541 9.58577C20.2533 10.1576 19.7195 11.0813 19.7195 12.1369C19.7195 13.8523 21.0986 15.2158 22.8336 15.2158C24.5241 15.2158 25.9477 13.8523 25.9477 12.1369C25.9477 10.4655 24.5686 9.05795 22.8336 9.05795C22.5667 9.05795 22.2998 9.10194 22.0773 9.14593V9.10194C22.2108 8.00232 22.1663 5.1433 19.1856 2.59218C16.2494 0.173011 12.9574 -0.134883 10.733 0.0410565C8.1527 0.260981 5.48344 1.18466 3.57047 2.59218C0.723267 4.65947 -0.566873 7.78239 0.233903 10.5534C0.767755 12.4008 2.72521 15.6117 9.9322 16.2275H9.97669C10.1991 16.2275 10.3771 16.0515 10.4216 15.8316C10.4216 15.5677 10.2436 15.3918 10.0212 15.3478C5.12754 14.9079 1.87995 13.1046 1.07917 10.2895C0.322879 7.91435 1.52404 5.18729 4.05984 3.29594ZM22.8336 9.93765C24.0348 9.93765 25.058 10.9053 25.058 12.1369C25.058 13.3245 24.0793 14.3361 22.8336 14.3361C21.588 14.3361 20.6092 13.3685 20.6092 12.1369C20.6092 12.0929 20.6092 12.0489 20.6092 12.0489C21.1431 11.697 21.588 11.0373 21.8104 10.2016C22.1218 10.0256 22.4777 9.93765 22.8336 9.93765Z" fill="#F2AAAA"/>
<path d="M26.882 22.5173L18.1179 31.2263C17.94 31.4023 17.94 31.6662 18.1179 31.8421C18.2069 31.9301 18.3404 31.9741 18.4293 31.9741C18.5183 31.9741 18.6518 31.9301 18.7408 31.8421L27.5493 23.1331C27.7272 22.9572 27.7272 22.6933 27.5493 22.5173C27.3713 22.3414 27.0599 22.3414 26.882 22.5173Z" fill="#F2AAAA"/>
<path d="M22.3442 24.0128C22.3442 22.5173 21.0986 21.2857 19.586 21.2857C18.0734 21.2857 16.8278 22.5173 16.8278 24.0128C16.8278 25.5083 18.0734 26.7399 19.586 26.7399C21.0986 26.7399 22.3442 25.5083 22.3442 24.0128ZM17.762 24.0128C17.762 23.0012 18.6073 22.1654 19.6305 22.1654C20.6537 22.1654 21.499 23.0012 21.499 24.0128C21.499 25.0245 20.6537 25.8602 19.6305 25.8602C18.5628 25.8602 17.762 25.0245 17.762 24.0128Z" fill="#F2AAAA"/>
<path d="M23.2785 30.3466C23.2785 31.8421 24.5241 33.0737 26.0367 33.0737C27.5493 33.0737 28.7949 31.8421 28.7949 30.3466C28.7949 28.8511 27.5493 27.6196 26.0367 27.6196C24.5241 27.6196 23.2785 28.8511 23.2785 30.3466ZM27.8607 30.3466C27.8607 31.3583 27.0154 32.194 25.9922 32.194C24.969 32.194 24.1237 31.3583 24.1237 30.3466C24.1237 29.335 24.969 28.4993 25.9922 28.4993C27.0154 28.4993 27.8607 29.335 27.8607 30.3466Z" fill="#F2AAAA"/>
</svg>
