<svg width="40" height="37" viewBox="0 0 40 37" fill="none" xmlns="http://www.w3.org/2000/svg">
<mask id="path-1-outside-1_445_5586" maskUnits="userSpaceOnUse" x="0" y="0" width="40" height="37" fill="black">
<rect fill="white" width="40" height="37"/>
<path d="M23.5244 17.6101C18.2944 17.6101 14.0545 21.7269 14.0545 26.8051C14.0545 31.8832 18.2944 36 23.5244 36C28.7544 36 32.9943 31.8832 32.9943 26.8051C32.9943 21.7269 28.7544 17.6101 23.5244 17.6101ZM37.8826 3.00402L37.9549 3.07418C38.5335 3.63599 38.6217 4.5855 38.2965 5.66645C37.9567 6.79625 37.1681 8.05667 36.0113 9.17985C34.8546 10.303 33.5564 11.0687 32.3928 11.3987C31.2796 11.7145 30.3017 11.6288 29.7231 11.067L29.6508 10.9969C30.1919 11.0681 30.804 11.007 31.449 10.8241C34.1356 10.0621 36.92 7.35859 37.7047 4.75001C37.8931 4.12371 37.9561 3.52946 37.8826 3.00402ZM28.331 10.4264L29.3569 11.4225C30.0791 12.1238 31.2413 12.2472 32.5365 11.8799C33.7813 11.5269 35.16 10.7175 36.3775 9.53536C37.5949 8.35323 38.4286 7.01457 38.7921 5.80591C39.1704 4.54838 39.0433 3.41994 38.321 2.71867L37.2911 1.7186C36.4077 0.860917 35.1874 0.883935 34.054 1.20537C31.3675 1.96724 28.583 4.67086 27.7984 7.2794C27.466 8.38423 27.4437 9.56501 28.331 10.4264ZM34.1977 1.68659C35.0839 1.43524 36.259 1.3472 36.9337 2.08665C37.4524 2.65531 37.5214 3.57229 37.2091 4.61055C36.4754 7.04978 33.8175 9.63041 31.3054 10.3428C30.1921 10.6586 29.2142 10.5729 28.6356 10.0111C28.057 9.44933 27.9688 8.49981 28.294 7.41886C29.0277 4.97966 31.6855 2.39899 34.1977 1.68659ZM31.8363 4.96026L32.888 4.9199L33.8062 4.26457L33.6052 5.07216L34.1978 5.52213L33.056 6.19164L32.3191 7.27214L31.8789 6.67876L31.0398 6.84053L31.752 5.97754L31.8363 4.96026ZM32.7447 4.5241L31.453 4.57366L31.3495 5.82364L30.008 7.44911L31.6998 7.12297L32.3337 7.97763L33.3488 6.48932L34.9246 5.56531L34.069 4.91557L34.4735 3.29027L32.7447 4.5241ZM1.84533 5.43401C0.943886 6.30929 0.787067 7.72405 1.26227 9.30378C2.25616 12.6078 5.79043 16.0395 9.1933 17.0045C10.8203 17.4659 12.2773 17.3137 13.1788 16.4384C13.6717 15.9598 14.2331 15.471 14.6888 14.9637C15.4807 14.082 15.6017 12.7268 15.149 11.2218C14.1551 7.91766 10.6208 4.48602 7.21794 3.52098C5.6896 3.08755 4.31123 3.19571 3.4025 3.93597C2.87128 4.3687 2.34054 4.95317 1.84533 5.43401ZM13.0619 15.8408L12.8126 16.0829C12.0548 16.8187 10.782 16.9331 9.33693 16.5233C6.10846 15.6077 2.70081 12.2991 1.75787 9.16432C1.33579 7.76117 1.45364 6.52535 2.21148 5.78951L2.46074 5.54748C2.31701 6.2576 2.3862 7.08192 2.64941 7.9569C3.64329 11.261 7.17756 14.6926 10.5804 15.6577C11.4816 15.9132 12.3305 15.9804 13.0619 15.8408ZM14.6534 11.3612C15.0472 12.6703 14.971 13.8337 14.3436 14.5814C13.4784 15.6123 11.9147 15.5141 10.7241 15.1764C7.49559 14.2608 4.08794 10.9522 3.14501 7.81744C2.72292 6.4143 2.84079 5.17847 3.59863 4.44265C4.35646 3.70682 5.62921 3.59238 7.07431 4.00219C10.3028 4.91778 13.7104 8.22645 14.6534 11.3612ZM8.88816 7.74248L6.79463 6.24836L7.28253 8.20887L6.22741 9.01014L8.17765 10.1537L9.43415 11.996L10.2161 10.9418L12.2566 11.3351L10.6321 9.3668L10.5027 7.80444L8.88816 7.74248ZM10.1194 8.19103L10.2296 9.5207L11.2248 10.7266L10.0369 10.4976L9.44879 11.2905L8.47043 9.85602L6.95423 8.96696L7.7463 8.36547L7.46189 7.22266L8.74484 8.13829L10.1194 8.19103ZM23.3039 22.79L21.9944 24.8597L19.1556 25.5247L21.0499 27.683L20.8239 30.5113L23.5244 29.4286L26.2249 30.5113L25.9989 27.683L27.8932 25.5247L25.0544 24.8597L23.5244 22.4415L23.3039 22.79ZM22.38 25.2104L23.5244 23.4016L24.7242 25.2979L26.955 25.8205L25.4668 27.5162L25.6442 29.7363L23.5244 28.8864L21.4046 29.7363L21.582 27.5162L20.0938 25.8205L22.3247 25.2979L22.38 25.2104ZM23.5244 18.1129C28.4685 18.1129 32.4765 22.0045 32.4765 26.8051C32.4765 31.6056 28.4685 35.4972 23.5244 35.4972C18.5803 35.4972 14.5723 31.6056 14.5723 26.8051C14.5723 22.0045 18.5803 18.1129 23.5244 18.1129Z"/>
</mask>
<path d="M23.5244 17.6101C18.2944 17.6101 14.0545 21.7269 14.0545 26.8051C14.0545 31.8832 18.2944 36 23.5244 36C28.7544 36 32.9943 31.8832 32.9943 26.8051C32.9943 21.7269 28.7544 17.6101 23.5244 17.6101ZM37.8826 3.00402L37.9549 3.07418C38.5335 3.63599 38.6217 4.5855 38.2965 5.66645C37.9567 6.79625 37.1681 8.05667 36.0113 9.17985C34.8546 10.303 33.5564 11.0687 32.3928 11.3987C31.2796 11.7145 30.3017 11.6288 29.7231 11.067L29.6508 10.9969C30.1919 11.0681 30.804 11.007 31.449 10.8241C34.1356 10.0621 36.92 7.35859 37.7047 4.75001C37.8931 4.12371 37.9561 3.52946 37.8826 3.00402ZM28.331 10.4264L29.3569 11.4225C30.0791 12.1238 31.2413 12.2472 32.5365 11.8799C33.7813 11.5269 35.16 10.7175 36.3775 9.53536C37.5949 8.35323 38.4286 7.01457 38.7921 5.80591C39.1704 4.54838 39.0433 3.41994 38.321 2.71867L37.2911 1.7186C36.4077 0.860917 35.1874 0.883935 34.054 1.20537C31.3675 1.96724 28.583 4.67086 27.7984 7.2794C27.466 8.38423 27.4437 9.56501 28.331 10.4264ZM34.1977 1.68659C35.0839 1.43524 36.259 1.3472 36.9337 2.08665C37.4524 2.65531 37.5214 3.57229 37.2091 4.61055C36.4754 7.04978 33.8175 9.63041 31.3054 10.3428C30.1921 10.6586 29.2142 10.5729 28.6356 10.0111C28.057 9.44933 27.9688 8.49981 28.294 7.41886C29.0277 4.97966 31.6855 2.39899 34.1977 1.68659ZM31.8363 4.96026L32.888 4.9199L33.8062 4.26457L33.6052 5.07216L34.1978 5.52213L33.056 6.19164L32.3191 7.27214L31.8789 6.67876L31.0398 6.84053L31.752 5.97754L31.8363 4.96026ZM32.7447 4.5241L31.453 4.57366L31.3495 5.82364L30.008 7.44911L31.6998 7.12297L32.3337 7.97763L33.3488 6.48932L34.9246 5.56531L34.069 4.91557L34.4735 3.29027L32.7447 4.5241ZM1.84533 5.43401C0.943886 6.30929 0.787067 7.72405 1.26227 9.30378C2.25616 12.6078 5.79043 16.0395 9.1933 17.0045C10.8203 17.4659 12.2773 17.3137 13.1788 16.4384C13.6717 15.9598 14.2331 15.471 14.6888 14.9637C15.4807 14.082 15.6017 12.7268 15.149 11.2218C14.1551 7.91766 10.6208 4.48602 7.21794 3.52098C5.6896 3.08755 4.31123 3.19571 3.4025 3.93597C2.87128 4.3687 2.34054 4.95317 1.84533 5.43401ZM13.0619 15.8408L12.8126 16.0829C12.0548 16.8187 10.782 16.9331 9.33693 16.5233C6.10846 15.6077 2.70081 12.2991 1.75787 9.16432C1.33579 7.76117 1.45364 6.52535 2.21148 5.78951L2.46074 5.54748C2.31701 6.2576 2.3862 7.08192 2.64941 7.9569C3.64329 11.261 7.17756 14.6926 10.5804 15.6577C11.4816 15.9132 12.3305 15.9804 13.0619 15.8408ZM14.6534 11.3612C15.0472 12.6703 14.971 13.8337 14.3436 14.5814C13.4784 15.6123 11.9147 15.5141 10.7241 15.1764C7.49559 14.2608 4.08794 10.9522 3.14501 7.81744C2.72292 6.4143 2.84079 5.17847 3.59863 4.44265C4.35646 3.70682 5.62921 3.59238 7.07431 4.00219C10.3028 4.91778 13.7104 8.22645 14.6534 11.3612ZM8.88816 7.74248L6.79463 6.24836L7.28253 8.20887L6.22741 9.01014L8.17765 10.1537L9.43415 11.996L10.2161 10.9418L12.2566 11.3351L10.6321 9.3668L10.5027 7.80444L8.88816 7.74248ZM10.1194 8.19103L10.2296 9.5207L11.2248 10.7266L10.0369 10.4976L9.44879 11.2905L8.47043 9.85602L6.95423 8.96696L7.7463 8.36547L7.46189 7.22266L8.74484 8.13829L10.1194 8.19103ZM23.3039 22.79L21.9944 24.8597L19.1556 25.5247L21.0499 27.683L20.8239 30.5113L23.5244 29.4286L26.2249 30.5113L25.9989 27.683L27.8932 25.5247L25.0544 24.8597L23.5244 22.4415L23.3039 22.79ZM22.38 25.2104L23.5244 23.4016L24.7242 25.2979L26.955 25.8205L25.4668 27.5162L25.6442 29.7363L23.5244 28.8864L21.4046 29.7363L21.582 27.5162L20.0938 25.8205L22.3247 25.2979L22.38 25.2104ZM23.5244 18.1129C28.4685 18.1129 32.4765 22.0045 32.4765 26.8051C32.4765 31.6056 28.4685 35.4972 23.5244 35.4972C18.5803 35.4972 14.5723 31.6056 14.5723 26.8051C14.5723 22.0045 18.5803 18.1129 23.5244 18.1129Z" fill="#F2AAAA"/>
<path d="M23.5244 17.6101C18.2944 17.6101 14.0545 21.7269 14.0545 26.8051C14.0545 31.8832 18.2944 36 23.5244 36C28.7544 36 32.9943 31.8832 32.9943 26.8051C32.9943 21.7269 28.7544 17.6101 23.5244 17.6101ZM37.8826 3.00402L37.9549 3.07418C38.5335 3.63599 38.6217 4.5855 38.2965 5.66645C37.9567 6.79625 37.1681 8.05667 36.0113 9.17985C34.8546 10.303 33.5564 11.0687 32.3928 11.3987C31.2796 11.7145 30.3017 11.6288 29.7231 11.067L29.6508 10.9969C30.1919 11.0681 30.804 11.007 31.449 10.8241C34.1356 10.0621 36.92 7.35859 37.7047 4.75001C37.8931 4.12371 37.9561 3.52946 37.8826 3.00402ZM28.331 10.4264L29.3569 11.4225C30.0791 12.1238 31.2413 12.2472 32.5365 11.8799C33.7813 11.5269 35.16 10.7175 36.3775 9.53536C37.5949 8.35323 38.4286 7.01457 38.7921 5.80591C39.1704 4.54838 39.0433 3.41994 38.321 2.71867L37.2911 1.7186C36.4077 0.860917 35.1874 0.883935 34.054 1.20537C31.3675 1.96724 28.583 4.67086 27.7984 7.2794C27.466 8.38423 27.4437 9.56501 28.331 10.4264ZM34.1977 1.68659C35.0839 1.43524 36.259 1.3472 36.9337 2.08665C37.4524 2.65531 37.5214 3.57229 37.2091 4.61055C36.4754 7.04978 33.8175 9.63041 31.3054 10.3428C30.1921 10.6586 29.2142 10.5729 28.6356 10.0111C28.057 9.44933 27.9688 8.49981 28.294 7.41886C29.0277 4.97966 31.6855 2.39899 34.1977 1.68659ZM31.8363 4.96026L32.888 4.9199L33.8062 4.26457L33.6052 5.07216L34.1978 5.52213L33.056 6.19164L32.3191 7.27214L31.8789 6.67876L31.0398 6.84053L31.752 5.97754L31.8363 4.96026ZM32.7447 4.5241L31.453 4.57366L31.3495 5.82364L30.008 7.44911L31.6998 7.12297L32.3337 7.97763L33.3488 6.48932L34.9246 5.56531L34.069 4.91557L34.4735 3.29027L32.7447 4.5241ZM1.84533 5.43401C0.943886 6.30929 0.787067 7.72405 1.26227 9.30378C2.25616 12.6078 5.79043 16.0395 9.1933 17.0045C10.8203 17.4659 12.2773 17.3137 13.1788 16.4384C13.6717 15.9598 14.2331 15.471 14.6888 14.9637C15.4807 14.082 15.6017 12.7268 15.149 11.2218C14.1551 7.91766 10.6208 4.48602 7.21794 3.52098C5.6896 3.08755 4.31123 3.19571 3.4025 3.93597C2.87128 4.3687 2.34054 4.95317 1.84533 5.43401ZM13.0619 15.8408L12.8126 16.0829C12.0548 16.8187 10.782 16.9331 9.33693 16.5233C6.10846 15.6077 2.70081 12.2991 1.75787 9.16432C1.33579 7.76117 1.45364 6.52535 2.21148 5.78951L2.46074 5.54748C2.31701 6.2576 2.3862 7.08192 2.64941 7.9569C3.64329 11.261 7.17756 14.6926 10.5804 15.6577C11.4816 15.9132 12.3305 15.9804 13.0619 15.8408ZM14.6534 11.3612C15.0472 12.6703 14.971 13.8337 14.3436 14.5814C13.4784 15.6123 11.9147 15.5141 10.7241 15.1764C7.49559 14.2608 4.08794 10.9522 3.14501 7.81744C2.72292 6.4143 2.84079 5.17847 3.59863 4.44265C4.35646 3.70682 5.62921 3.59238 7.07431 4.00219C10.3028 4.91778 13.7104 8.22645 14.6534 11.3612ZM8.88816 7.74248L6.79463 6.24836L7.28253 8.20887L6.22741 9.01014L8.17765 10.1537L9.43415 11.996L10.2161 10.9418L12.2566 11.3351L10.6321 9.3668L10.5027 7.80444L8.88816 7.74248ZM10.1194 8.19103L10.2296 9.5207L11.2248 10.7266L10.0369 10.4976L9.44879 11.2905L8.47043 9.85602L6.95423 8.96696L7.7463 8.36547L7.46189 7.22266L8.74484 8.13829L10.1194 8.19103ZM23.3039 22.79L21.9944 24.8597L19.1556 25.5247L21.0499 27.683L20.8239 30.5113L23.5244 29.4286L26.2249 30.5113L25.9989 27.683L27.8932 25.5247L25.0544 24.8597L23.5244 22.4415L23.3039 22.79ZM22.38 25.2104L23.5244 23.4016L24.7242 25.2979L26.955 25.8205L25.4668 27.5162L25.6442 29.7363L23.5244 28.8864L21.4046 29.7363L21.582 27.5162L20.0938 25.8205L22.3247 25.2979L22.38 25.2104ZM23.5244 18.1129C28.4685 18.1129 32.4765 22.0045 32.4765 26.8051C32.4765 31.6056 28.4685 35.4972 23.5244 35.4972C18.5803 35.4972 14.5723 31.6056 14.5723 26.8051C14.5723 22.0045 18.5803 18.1129 23.5244 18.1129Z" stroke="#F2AAAA" stroke-width="0.4" mask="url(#path-1-outside-1_445_5586)"/>
</svg>
