<svg width="41" height="38" viewBox="0 0 41 38" fill="none" xmlns="http://www.w3.org/2000/svg">
<path d="M39.847 15.1869C39.6385 14.9731 39.2956 14.9683 39.0811 15.1756L30.3251 23.615L22.0767 14.9963L35.6394 1.92418C35.6405 1.92311 35.641 1.92149 35.6421 1.92041C35.6854 1.87787 35.7179 1.82616 35.7445 1.77177C35.7488 1.76315 35.7569 1.75615 35.7607 1.74753C35.7624 1.7443 35.7618 1.74053 35.7634 1.7373C35.7884 1.67429 35.8024 1.60858 35.8024 1.5418C35.8024 1.54072 35.8035 1.53911 35.8035 1.53803C35.8035 1.51487 35.7927 1.49441 35.7905 1.47179C35.7846 1.42601 35.7802 1.38023 35.7629 1.3366C35.7439 1.29029 35.7131 1.25205 35.6833 1.21327C35.6708 1.19765 35.6654 1.17827 35.6508 1.16372C35.6497 1.16319 35.6486 1.16265 35.6481 1.16157C35.5944 1.10771 35.53 1.06732 35.4585 1.03932C35.3962 1.01508 35.3312 1.00108 35.2657 1.00054C35.2646 1.00054 35.2629 1 35.2619 1H1.54166C1.24267 1 1 1.24128 1 1.53857V33.2656C1 33.5634 1.24267 33.8041 1.54166 33.8041H8.07521L8.00967 33.9469L8.00155 33.9641C7.87751 34.2345 7.81196 34.5377 7.81196 34.842C7.81196 36.0317 8.78533 37 9.98187 37C10.7472 37 11.4601 36.5918 11.8463 35.9347C11.8474 35.9326 11.8495 35.9309 11.8506 35.9288L13.1241 33.8041H13.1972L12.9231 34.9071C12.922 34.9125 12.9236 34.9179 12.9226 34.9227L12.9182 34.9416C12.9009 35.0375 12.8922 35.1425 12.8922 35.248C12.8922 36.2137 13.6825 36.9995 14.6537 36.9995C15.3248 36.9995 15.9288 36.6273 16.2381 36.0107L16.2684 35.9444C16.269 35.9423 16.269 35.9401 16.2695 35.9385L16.7402 34.9637C16.7386 34.9734 16.7359 34.9814 16.7348 34.9911C16.731 35.0105 16.7267 35.0331 16.7256 35.0439C16.7169 35.1139 16.7158 35.1764 16.7158 35.248C16.7158 36.2137 17.5061 36.9995 18.4773 36.9995C19.1495 36.9995 19.7529 36.6203 20.0449 36.0295C20.0476 36.0252 20.0519 36.022 20.0547 36.0182L20.9657 34.5064L20.885 34.9373C20.8829 34.9486 20.8866 34.9588 20.8856 34.9701C20.8677 35.0574 20.8514 35.1452 20.8514 35.2486C20.8514 36.1307 21.5735 36.8481 22.4607 36.8481C23.0858 36.8481 23.6518 36.4851 23.9167 35.9191C23.9178 35.9164 23.92 35.9148 23.921 35.9126L24.9708 33.8041H35.6464C35.946 33.8041 36.1881 33.5634 36.1881 33.2656V19.4642L39.8351 15.9485C40.0502 15.7417 40.0556 15.4008 39.847 15.1869ZM20.4197 2.07821V7.92436H15.932V2.07821H20.4197ZM35.1048 32.7254H25.5065L28.8561 25.996C28.9889 25.7294 28.8789 25.4063 28.6108 25.2743C28.3421 25.1424 28.0176 25.2522 27.8849 25.5183L24.1388 33.0448C24.1366 33.0501 24.1334 33.055 24.1312 33.0598L22.9498 35.4333C22.9461 35.4414 22.9466 35.4489 22.9433 35.457L22.9396 35.4554C22.8551 35.6487 22.6714 35.7688 22.4602 35.7688C22.1704 35.7688 21.9342 35.5346 21.9342 35.2464C21.9342 35.1969 21.9396 35.177 21.9402 35.1748C21.9418 35.1678 21.9402 35.1619 21.9413 35.1549C21.9434 35.1473 21.9483 35.1414 21.9499 35.1333L22.5837 31.756C22.5848 31.7517 22.5826 31.7474 22.5837 31.7436C22.5902 31.7043 22.5842 31.665 22.5815 31.6256C22.5799 31.5949 22.5837 31.5637 22.5766 31.5335C22.5685 31.5018 22.5506 31.4743 22.5376 31.4441C22.523 31.4107 22.5127 31.3763 22.4916 31.3467C22.4764 31.3251 22.4531 31.31 22.4347 31.2906C22.4038 31.2589 22.3757 31.2266 22.3372 31.2029C22.334 31.2007 22.3323 31.1975 22.3291 31.1953C22.302 31.1792 22.2722 31.1759 22.2435 31.1646C22.2121 31.1528 22.185 31.1334 22.1503 31.1275C22.146 31.1269 22.1428 31.1285 22.139 31.1275C22.0881 31.1194 22.0382 31.1248 21.9884 31.1307C21.9683 31.1334 21.9478 31.1296 21.9288 31.1339C21.8914 31.1431 21.8578 31.1635 21.8232 31.1797C21.7945 31.1932 21.7641 31.2012 21.7387 31.219C21.7197 31.2325 21.7062 31.2529 21.6889 31.2696C21.6542 31.302 21.619 31.3327 21.5935 31.3736C21.5919 31.3763 21.5886 31.3779 21.587 31.3806L19.1257 35.4635C19.1132 35.4845 19.1116 35.5082 19.1019 35.5303L19.0905 35.5259C18.9887 35.7618 18.7422 35.9207 18.4784 35.9207C18.1047 35.9207 17.8002 35.618 17.8002 35.2464C17.8002 35.2254 17.8002 35.2125 17.8002 35.2017L18.7064 30.8571C18.7092 30.8431 18.7048 30.8291 18.7064 30.8151C18.7113 30.7779 18.7102 30.7418 18.707 30.7052C18.7043 30.6713 18.7016 30.6395 18.6929 30.6072C18.6837 30.5733 18.6696 30.5437 18.6539 30.5124C18.6382 30.4812 18.623 30.4521 18.6019 30.4246C18.5819 30.3977 18.5575 30.3762 18.5326 30.3535C18.5049 30.3282 18.4768 30.3061 18.4443 30.2873C18.4318 30.2798 18.4242 30.2684 18.4107 30.262C18.3901 30.2518 18.3685 30.2528 18.3473 30.2464C18.3257 30.2388 18.3089 30.2248 18.2861 30.22C18.272 30.2173 18.2579 30.2216 18.2439 30.22C18.206 30.2151 18.1702 30.2162 18.1323 30.2194C18.0992 30.2227 18.0678 30.2254 18.0364 30.2334C18.0017 30.2431 17.9698 30.2577 17.9373 30.2733C17.907 30.2884 17.8788 30.3035 17.8517 30.3234C17.8246 30.3438 17.8019 30.3681 17.7786 30.3939C17.7537 30.4214 17.7315 30.4489 17.7125 30.4806C17.7049 30.493 17.693 30.5011 17.687 30.5146L16.464 33.0475C16.4623 33.0512 16.4602 33.0545 16.4585 33.0588L15.2539 35.5523C15.2533 35.5539 15.2533 35.5556 15.2528 35.5566C15.1342 35.7812 14.9067 35.9212 14.6537 35.9212C14.28 35.9212 13.9756 35.6186 13.9756 35.247C13.9756 35.2066 13.9783 35.1667 13.9793 35.157L14.0162 34.9987L15.1764 30.3336C15.1786 30.3239 15.1759 30.3148 15.1775 30.3051C15.1846 30.2679 15.1829 30.2313 15.1824 30.1941C15.1818 30.1602 15.1835 30.1284 15.177 30.0956C15.1699 30.0622 15.1553 30.0326 15.1423 30.0002C15.1288 29.9679 15.1179 29.9367 15.0979 29.9076C15.08 29.8801 15.0551 29.8586 15.0318 29.8349C15.0058 29.808 14.9809 29.781 14.9489 29.76C14.9408 29.7541 14.9365 29.746 14.9273 29.7407C14.9034 29.7266 14.8763 29.7245 14.8509 29.7137C14.8265 29.7035 14.8065 29.6868 14.7799 29.6803C14.7702 29.6782 14.7615 29.6809 14.7523 29.6793C14.7133 29.6712 14.6754 29.6728 14.6364 29.6739C14.6039 29.6749 14.5725 29.6728 14.5421 29.6793C14.5075 29.6868 14.4766 29.7013 14.4446 29.7148C14.4121 29.7277 14.3807 29.739 14.352 29.7579C14.3255 29.7757 14.3049 29.7994 14.2816 29.8214C14.2534 29.8484 14.2258 29.8742 14.2036 29.9071C14.1982 29.9146 14.1901 29.9189 14.1852 29.927L10.9211 35.3762C10.9206 35.3773 10.9206 35.3789 10.92 35.3805C10.9189 35.3821 10.9173 35.3827 10.9168 35.3843C10.7245 35.7155 10.3665 35.9212 9.98295 35.9212C9.38387 35.9212 8.89637 35.4365 8.89637 34.8403C8.89637 34.6895 8.92833 34.5398 8.98467 34.4165L8.98846 34.4084C8.98846 34.4079 8.989 34.4073 8.989 34.4068L8.99442 34.3949L9.03883 34.3018C9.03992 34.2985 9.03992 34.2953 9.041 34.2926L14.5373 22.2783C14.5432 22.2653 14.5416 22.2508 14.547 22.2379C14.5595 22.2034 14.5665 22.1679 14.5719 22.1312C14.5768 22.0973 14.5811 22.065 14.5795 22.0311C14.5784 21.9977 14.5708 21.967 14.5633 21.9341C14.5546 21.897 14.5443 21.8619 14.5286 21.828C14.5226 21.8156 14.5226 21.8016 14.5161 21.7898C14.5064 21.7725 14.4896 21.7623 14.4782 21.7462C14.4566 21.716 14.4333 21.6891 14.4056 21.6632C14.378 21.6379 14.3488 21.618 14.3163 21.5991C14.2995 21.5889 14.2876 21.5738 14.2691 21.5652C14.2561 21.5593 14.2421 21.5604 14.2285 21.5555C14.1938 21.5431 14.1586 21.5361 14.1218 21.5307C14.0871 21.5253 14.0541 21.521 14.02 21.5227C13.9869 21.5243 13.9561 21.5313 13.9236 21.5388C13.8867 21.5474 13.8521 21.5571 13.8174 21.5727C13.8044 21.5792 13.7903 21.5792 13.7779 21.5857L9.55125 23.971C9.54908 23.9721 9.54854 23.9742 9.54637 23.9753C9.54475 23.9764 9.54258 23.9764 9.54095 23.9774C9.51983 23.9898 9.49491 24.0022 9.44833 24.0264C9.04967 24.251 8.50746 24.3744 7.92192 24.3744C6.67014 24.3744 5.87172 23.8099 5.87172 23.4211C5.87172 23.2617 5.99685 23.0802 6.19293 22.9385L6.38089 22.8168L14.3883 17.6881H20.1262C20.4251 17.6881 20.6678 17.4468 20.6678 17.1495C20.6678 16.8522 20.4251 16.6109 20.1262 16.6109H14.222C14.202 16.6109 14.1852 16.6201 14.1657 16.6222C14.1402 16.6249 14.1164 16.6308 14.0909 16.6373C14.0438 16.6492 13.9999 16.6653 13.9588 16.6885C13.9496 16.6933 13.9398 16.6939 13.9311 16.6992L5.79156 21.912C5.79156 21.912 5.79156 21.9126 5.79102 21.9126C5.79047 21.9131 5.78993 21.9126 5.78993 21.9131L5.57977 22.0499C5.06898 22.4177 4.78786 22.9041 4.78786 23.4206C4.78786 24.5586 6.16422 25.451 7.92138 25.451C8.69054 25.451 9.42233 25.2775 9.95966 24.9743C10.0025 24.9528 10.0436 24.9312 10.081 24.9097C10.0826 24.9086 10.0842 24.9086 10.0859 24.9075L12.8608 23.3414L8.56867 32.7243H2.08333V2.07444H14.8487V8.46131C14.8487 8.7586 15.0914 8.99988 15.3904 8.99988H20.9614C21.2604 8.99988 21.5031 8.7586 21.5031 8.46131V2.07606H33.925L20.9408 14.5902L20.9376 14.5934C20.9132 14.6171 20.9007 14.6473 20.8818 14.6742C20.8596 14.7055 20.8319 14.7335 20.8173 14.7679C20.8021 14.8024 20.8005 14.8396 20.7935 14.8757C20.787 14.9074 20.7745 14.9376 20.7734 14.9694C20.7729 15.0071 20.7854 15.0437 20.7924 15.0814C20.7984 15.1121 20.7973 15.1433 20.8086 15.1729C20.8211 15.2058 20.8466 15.2327 20.8655 15.2634C20.8845 15.293 20.8964 15.3259 20.9219 15.3523L29.9173 24.7519C29.9178 24.7524 29.9189 24.753 29.92 24.7535C29.9205 24.7541 29.9205 24.7551 29.9211 24.7557C29.9552 24.7907 29.998 24.8111 30.0381 24.8343C30.0603 24.8472 30.0781 24.8677 30.1009 24.8774C30.1675 24.9049 30.239 24.9189 30.31 24.9189C30.3777 24.9189 30.4448 24.9065 30.5088 24.8812C30.5283 24.8736 30.544 24.8569 30.5629 24.8472C30.6046 24.8251 30.6474 24.8052 30.6837 24.7708C30.6843 24.7702 30.6848 24.7691 30.6853 24.7681C30.6859 24.7675 30.687 24.7675 30.6875 24.767L35.1053 20.5085L35.1048 32.7254Z" fill="#F2AAAA" stroke="white" stroke-width="0.5"/>
</svg>
