<svg width="14" height="14" viewBox="0 0 14 14" fill="none" xmlns="http://www.w3.org/2000/svg">
<path d="M10.2696 8.22379L13.151 5.73419C13.5586 5.38063 13.3478 4.68826 12.8137 4.6588L9.10301 4.42309C8.87812 4.40836 8.68134 4.26105 8.59701 4.04008L7.23362 0.386698C7.03684 -0.128899 6.34812 -0.128899 6.15134 0.386698L4.78795 4.02535C4.70362 4.24632 4.50684 4.39363 4.28195 4.40836L0.557222 4.64406C0.0231105 4.67353 -0.187723 5.3659 0.219889 5.71945L3.10128 8.19432C3.26995 8.34164 3.35428 8.59207 3.29806 8.81304L2.35634 12.599C2.22984 13.1293 2.778 13.5565 3.22778 13.2619L6.36217 11.1553C6.55895 11.0227 6.7979 11.0227 6.98062 11.1553L10.1291 13.2619C10.5788 13.5565 11.127 13.1293 11.0005 12.599L10.0588 8.82777C10.0166 8.6068 10.0869 8.3711 10.2696 8.22379Z" fill="#D7D7D7"/>
</svg>
