<svg width="14" height="12" viewBox="0 0 14 12" fill="none" xmlns="http://www.w3.org/2000/svg">
<path d="M0.858304 5.22604C0.858304 5.22604 7.05017 2.59178 9.19764 1.66423C10.0208 1.29321 12.8125 0.10594 12.8125 0.10594C12.8125 0.10594 14.101 -0.41349 13.9936 0.847983C13.9579 1.36741 13.6715 3.18542 13.3852 5.15183C12.9557 7.93449 12.4904 10.9769 12.4904 10.9769C12.4904 10.9769 12.4188 11.8302 11.8104 11.9786C11.2019 12.127 10.1998 11.4592 10.0208 11.3108C9.87767 11.1995 7.3365 9.52989 6.40593 8.71364C6.15539 8.49102 5.86906 8.0458 6.44172 7.52637C7.7302 6.302 9.26922 4.78081 10.1998 3.81615C10.6293 3.37093 11.0588 2.33207 9.26922 3.59354C6.72805 5.41155 4.22267 7.11825 4.22267 7.11825C4.22267 7.11825 3.65001 7.48927 2.57628 7.15535C1.50254 6.82143 0.249856 6.3762 0.249856 6.3762C0.249856 6.3762 -0.609131 5.81967 0.858304 5.22604Z" fill="black"/>
</svg>
