<svg width="268" height="310" viewBox="0 0 268 310" fill="none" xmlns="http://www.w3.org/2000/svg">
<path opacity="0.3" d="M185.36 187.161C166.681 220.708 143.184 247.385 120.317 263.404C97.4187 279.445 75.305 284.705 59.2675 275.775C43.2299 266.845 36.0543 245.277 37.6301 217.364C39.2038 189.488 49.5058 155.464 68.1855 121.917C86.8652 88.3687 110.362 61.6918 133.229 45.6728C156.127 29.6319 178.241 24.3722 194.278 33.3021C210.316 42.2319 217.492 63.8001 215.916 91.7135C214.342 119.589 204.04 153.613 185.36 187.161Z" stroke="#F4AD7B"/>
<path opacity="0.3" d="M186.221 188.94C163.914 218.781 137.865 241.39 113.803 253.832C89.7065 266.291 67.7669 268.482 53.508 257.823C39.2491 247.163 35.1408 225.501 40.2711 198.863C45.3941 172.264 59.7065 140.881 82.0137 111.04C104.321 81.1995 130.37 58.5904 154.432 46.1485C178.529 33.6891 200.468 31.4985 214.727 42.1576C228.986 52.8168 233.094 74.4794 227.964 101.117C222.841 127.717 208.529 159.099 186.221 188.94Z" stroke="#F4AD7B"/>
</svg>
