<svg width="36" height="35" viewBox="0 0 36 35" fill="none" xmlns="http://www.w3.org/2000/svg">
<mask id="path-1-outside-1_445_2832" maskUnits="userSpaceOnUse" x="0" y="0" width="36" height="35" fill="black">
<rect fill="white" width="36" height="35"/>
<path d="M21.1534 16.661C16.4739 16.661 12.6803 20.5425 12.6803 25.3305C12.6803 30.1185 16.4739 34 21.1534 34C25.8329 34 29.6265 30.1185 29.6265 25.3305C29.6265 20.5425 25.8329 16.661 21.1534 16.661ZM34.0003 2.8895L34.0649 2.95566C34.5826 3.48536 34.6615 4.38061 34.3706 5.39979C34.0665 6.46504 33.3609 7.65344 32.3259 8.71243C31.2909 9.77142 30.1295 10.4934 29.0883 10.8045C28.0923 11.1022 27.2173 11.0215 26.6996 10.4918L26.6349 10.4256C27.1191 10.4928 27.6667 10.4352 28.2438 10.2627C30.6476 9.54431 33.139 6.99524 33.841 4.53572C34.0096 3.94522 34.0659 3.38492 34.0003 2.8895ZM25.4541 9.88779L26.372 10.827C27.0182 11.4881 28.058 11.6045 29.2168 11.2582C30.3306 10.9254 31.5642 10.1622 32.6535 9.04762C33.7428 7.93305 34.4887 6.67088 34.814 5.53128C35.1525 4.34562 35.0387 3.28166 34.3925 2.62046L33.471 1.67753C32.6806 0.868864 31.5888 0.890568 30.5747 1.19364C28.1709 1.91197 25.6795 4.46109 24.9775 6.92058C24.6801 7.96227 24.6602 9.07558 25.4541 9.88779ZM30.7032 1.64735C31.4961 1.41037 32.5475 1.32736 33.1512 2.02455C33.6153 2.56072 33.677 3.4253 33.3976 4.40423C32.7411 6.70408 30.363 9.13724 28.1153 9.80897C27.1192 10.1066 26.2443 10.0259 25.7266 9.4962C25.2089 8.96651 25.13 8.07125 25.4209 7.05207C26.0774 4.75225 28.4555 2.31905 30.7032 1.64735ZM28.5904 4.73396L29.5314 4.69591L30.3529 4.07803L30.1731 4.83947L30.7033 5.26372L29.6817 5.89497L29.0223 6.91374L28.6285 6.35426L27.8777 6.50678L28.515 5.69311L28.5904 4.73396ZM29.4031 4.32272L28.2475 4.36945L28.1548 5.548L26.9545 7.08059L28.4682 6.77308L29.0354 7.57891L29.9437 6.17565L31.3536 5.30444L30.5881 4.69182L30.95 3.1594L29.4031 4.32272ZM1.75635 5.18063C0.949795 6.00591 0.809483 7.33982 1.23466 8.82928C2.12393 11.9445 5.28617 15.1801 8.33085 16.09C9.78656 16.525 11.0902 16.3815 11.8968 15.5562C12.3378 15.1049 12.8401 14.644 13.2478 14.1658C13.9565 13.3345 14.0647 12.0567 13.6596 10.6377C12.7704 7.52237 9.60812 4.28682 6.56342 3.37692C5.19596 2.96827 3.96268 3.07024 3.1496 3.7682C2.67431 4.17621 2.19943 4.72728 1.75635 5.18063ZM11.7922 14.9928L11.5692 15.221C10.8911 15.9148 9.75235 16.0227 8.45936 15.6363C5.57073 14.773 2.52178 11.6534 1.67809 8.69779C1.30044 7.37482 1.40589 6.20962 2.08395 5.51583L2.30697 5.28762C2.17838 5.95717 2.24028 6.73438 2.47579 7.55937C3.36505 10.6747 6.52729 13.9102 9.57197 14.8201C10.3783 15.061 11.1378 15.1244 11.7922 14.9928ZM13.2162 10.7691C13.5685 12.0034 13.5004 13.1004 12.939 13.8053C12.1649 14.7773 10.7658 14.6847 9.70048 14.3664C6.81185 13.5031 3.7629 10.3835 2.91922 7.42787C2.54156 6.10491 2.64703 4.9397 3.32508 4.24592C4.00315 3.55214 5.14193 3.44424 6.43491 3.83064C9.32357 4.6939 12.3725 7.81351 13.2162 10.7691ZM8.05783 7.3572L6.18467 5.94845L6.62121 7.79694L5.67716 8.55241L7.42211 9.63064L8.54635 11.3676L9.24596 10.3737L11.0717 10.7446L9.61821 8.8887L9.50241 7.41561L8.05783 7.3572ZM9.1595 7.78012L9.25806 9.03381L10.1485 10.1708L9.08566 9.95485L8.55944 10.7024L7.68407 9.34996L6.32747 8.5117L7.03617 7.94458L6.78169 6.86708L7.9296 7.73039L9.1595 7.78012ZM20.9561 21.5448L19.7845 23.4963L17.2445 24.1233L18.9394 26.1583L18.7372 28.825L21.1534 27.8041L23.5696 28.825L23.3675 26.1583L25.0623 24.1233L22.5224 23.4963L21.1534 21.2162L20.9561 21.5448ZM20.1295 23.8269L21.1534 22.1215L22.2269 23.9094L24.2229 24.4021L22.8913 26.001L23.0501 28.0942L21.1534 27.2929L19.2568 28.0942L19.4155 26.001L18.0839 24.4021L20.08 23.9094L20.1295 23.8269ZM21.1534 17.135C25.5771 17.135 29.1632 20.8042 29.1632 25.3305C29.1632 29.8567 25.5771 33.5259 21.1534 33.5259C16.7297 33.5259 13.1437 29.8567 13.1437 25.3305C13.1437 20.8042 16.7297 17.135 21.1534 17.135Z"/>
</mask>
<path d="M21.1534 16.661C16.4739 16.661 12.6803 20.5425 12.6803 25.3305C12.6803 30.1185 16.4739 34 21.1534 34C25.8329 34 29.6265 30.1185 29.6265 25.3305C29.6265 20.5425 25.8329 16.661 21.1534 16.661ZM34.0003 2.8895L34.0649 2.95566C34.5826 3.48536 34.6615 4.38061 34.3706 5.39979C34.0665 6.46504 33.3609 7.65344 32.3259 8.71243C31.2909 9.77142 30.1295 10.4934 29.0883 10.8045C28.0923 11.1022 27.2173 11.0215 26.6996 10.4918L26.6349 10.4256C27.1191 10.4928 27.6667 10.4352 28.2438 10.2627C30.6476 9.54431 33.139 6.99524 33.841 4.53572C34.0096 3.94522 34.0659 3.38492 34.0003 2.8895ZM25.4541 9.88779L26.372 10.827C27.0182 11.4881 28.058 11.6045 29.2168 11.2582C30.3306 10.9254 31.5642 10.1622 32.6535 9.04762C33.7428 7.93305 34.4887 6.67088 34.814 5.53128C35.1525 4.34562 35.0387 3.28166 34.3925 2.62046L33.471 1.67753C32.6806 0.868864 31.5888 0.890568 30.5747 1.19364C28.1709 1.91197 25.6795 4.46109 24.9775 6.92058C24.6801 7.96227 24.6602 9.07558 25.4541 9.88779ZM30.7032 1.64735C31.4961 1.41037 32.5475 1.32736 33.1512 2.02455C33.6153 2.56072 33.677 3.4253 33.3976 4.40423C32.7411 6.70408 30.363 9.13724 28.1153 9.80897C27.1192 10.1066 26.2443 10.0259 25.7266 9.4962C25.2089 8.96651 25.13 8.07125 25.4209 7.05207C26.0774 4.75225 28.4555 2.31905 30.7032 1.64735ZM28.5904 4.73396L29.5314 4.69591L30.3529 4.07803L30.1731 4.83947L30.7033 5.26372L29.6817 5.89497L29.0223 6.91374L28.6285 6.35426L27.8777 6.50678L28.515 5.69311L28.5904 4.73396ZM29.4031 4.32272L28.2475 4.36945L28.1548 5.548L26.9545 7.08059L28.4682 6.77308L29.0354 7.57891L29.9437 6.17565L31.3536 5.30444L30.5881 4.69182L30.95 3.1594L29.4031 4.32272ZM1.75635 5.18063C0.949795 6.00591 0.809483 7.33982 1.23466 8.82928C2.12393 11.9445 5.28617 15.1801 8.33085 16.09C9.78656 16.525 11.0902 16.3815 11.8968 15.5562C12.3378 15.1049 12.8401 14.644 13.2478 14.1658C13.9565 13.3345 14.0647 12.0567 13.6596 10.6377C12.7704 7.52237 9.60812 4.28682 6.56342 3.37692C5.19596 2.96827 3.96268 3.07024 3.1496 3.7682C2.67431 4.17621 2.19943 4.72728 1.75635 5.18063ZM11.7922 14.9928L11.5692 15.221C10.8911 15.9148 9.75235 16.0227 8.45936 15.6363C5.57073 14.773 2.52178 11.6534 1.67809 8.69779C1.30044 7.37482 1.40589 6.20962 2.08395 5.51583L2.30697 5.28762C2.17838 5.95717 2.24028 6.73438 2.47579 7.55937C3.36505 10.6747 6.52729 13.9102 9.57197 14.8201C10.3783 15.061 11.1378 15.1244 11.7922 14.9928ZM13.2162 10.7691C13.5685 12.0034 13.5004 13.1004 12.939 13.8053C12.1649 14.7773 10.7658 14.6847 9.70048 14.3664C6.81185 13.5031 3.7629 10.3835 2.91922 7.42787C2.54156 6.10491 2.64703 4.9397 3.32508 4.24592C4.00315 3.55214 5.14193 3.44424 6.43491 3.83064C9.32357 4.6939 12.3725 7.81351 13.2162 10.7691ZM8.05783 7.3572L6.18467 5.94845L6.62121 7.79694L5.67716 8.55241L7.42211 9.63064L8.54635 11.3676L9.24596 10.3737L11.0717 10.7446L9.61821 8.8887L9.50241 7.41561L8.05783 7.3572ZM9.1595 7.78012L9.25806 9.03381L10.1485 10.1708L9.08566 9.95485L8.55944 10.7024L7.68407 9.34996L6.32747 8.5117L7.03617 7.94458L6.78169 6.86708L7.9296 7.73039L9.1595 7.78012ZM20.9561 21.5448L19.7845 23.4963L17.2445 24.1233L18.9394 26.1583L18.7372 28.825L21.1534 27.8041L23.5696 28.825L23.3675 26.1583L25.0623 24.1233L22.5224 23.4963L21.1534 21.2162L20.9561 21.5448ZM20.1295 23.8269L21.1534 22.1215L22.2269 23.9094L24.2229 24.4021L22.8913 26.001L23.0501 28.0942L21.1534 27.2929L19.2568 28.0942L19.4155 26.001L18.0839 24.4021L20.08 23.9094L20.1295 23.8269ZM21.1534 17.135C25.5771 17.135 29.1632 20.8042 29.1632 25.3305C29.1632 29.8567 25.5771 33.5259 21.1534 33.5259C16.7297 33.5259 13.1437 29.8567 13.1437 25.3305C13.1437 20.8042 16.7297 17.135 21.1534 17.135Z" fill="#F4AD7B"/>
<path d="M21.1534 16.661C16.4739 16.661 12.6803 20.5425 12.6803 25.3305C12.6803 30.1185 16.4739 34 21.1534 34C25.8329 34 29.6265 30.1185 29.6265 25.3305C29.6265 20.5425 25.8329 16.661 21.1534 16.661ZM34.0003 2.8895L34.0649 2.95566C34.5826 3.48536 34.6615 4.38061 34.3706 5.39979C34.0665 6.46504 33.3609 7.65344 32.3259 8.71243C31.2909 9.77142 30.1295 10.4934 29.0883 10.8045C28.0923 11.1022 27.2173 11.0215 26.6996 10.4918L26.6349 10.4256C27.1191 10.4928 27.6667 10.4352 28.2438 10.2627C30.6476 9.54431 33.139 6.99524 33.841 4.53572C34.0096 3.94522 34.0659 3.38492 34.0003 2.8895ZM25.4541 9.88779L26.372 10.827C27.0182 11.4881 28.058 11.6045 29.2168 11.2582C30.3306 10.9254 31.5642 10.1622 32.6535 9.04762C33.7428 7.93305 34.4887 6.67088 34.814 5.53128C35.1525 4.34562 35.0387 3.28166 34.3925 2.62046L33.471 1.67753C32.6806 0.868864 31.5888 0.890568 30.5747 1.19364C28.1709 1.91197 25.6795 4.46109 24.9775 6.92058C24.6801 7.96227 24.6602 9.07558 25.4541 9.88779ZM30.7032 1.64735C31.4961 1.41037 32.5475 1.32736 33.1512 2.02455C33.6153 2.56072 33.677 3.4253 33.3976 4.40423C32.7411 6.70408 30.363 9.13724 28.1153 9.80897C27.1192 10.1066 26.2443 10.0259 25.7266 9.4962C25.2089 8.96651 25.13 8.07125 25.4209 7.05207C26.0774 4.75225 28.4555 2.31905 30.7032 1.64735ZM28.5904 4.73396L29.5314 4.69591L30.3529 4.07803L30.1731 4.83947L30.7033 5.26372L29.6817 5.89497L29.0223 6.91374L28.6285 6.35426L27.8777 6.50678L28.515 5.69311L28.5904 4.73396ZM29.4031 4.32272L28.2475 4.36945L28.1548 5.548L26.9545 7.08059L28.4682 6.77308L29.0354 7.57891L29.9437 6.17565L31.3536 5.30444L30.5881 4.69182L30.95 3.1594L29.4031 4.32272ZM1.75635 5.18063C0.949795 6.00591 0.809483 7.33982 1.23466 8.82928C2.12393 11.9445 5.28617 15.1801 8.33085 16.09C9.78656 16.525 11.0902 16.3815 11.8968 15.5562C12.3378 15.1049 12.8401 14.644 13.2478 14.1658C13.9565 13.3345 14.0647 12.0567 13.6596 10.6377C12.7704 7.52237 9.60812 4.28682 6.56342 3.37692C5.19596 2.96827 3.96268 3.07024 3.1496 3.7682C2.67431 4.17621 2.19943 4.72728 1.75635 5.18063ZM11.7922 14.9928L11.5692 15.221C10.8911 15.9148 9.75235 16.0227 8.45936 15.6363C5.57073 14.773 2.52178 11.6534 1.67809 8.69779C1.30044 7.37482 1.40589 6.20962 2.08395 5.51583L2.30697 5.28762C2.17838 5.95717 2.24028 6.73438 2.47579 7.55937C3.36505 10.6747 6.52729 13.9102 9.57197 14.8201C10.3783 15.061 11.1378 15.1244 11.7922 14.9928ZM13.2162 10.7691C13.5685 12.0034 13.5004 13.1004 12.939 13.8053C12.1649 14.7773 10.7658 14.6847 9.70048 14.3664C6.81185 13.5031 3.7629 10.3835 2.91922 7.42787C2.54156 6.10491 2.64703 4.9397 3.32508 4.24592C4.00315 3.55214 5.14193 3.44424 6.43491 3.83064C9.32357 4.6939 12.3725 7.81351 13.2162 10.7691ZM8.05783 7.3572L6.18467 5.94845L6.62121 7.79694L5.67716 8.55241L7.42211 9.63064L8.54635 11.3676L9.24596 10.3737L11.0717 10.7446L9.61821 8.8887L9.50241 7.41561L8.05783 7.3572ZM9.1595 7.78012L9.25806 9.03381L10.1485 10.1708L9.08566 9.95485L8.55944 10.7024L7.68407 9.34996L6.32747 8.5117L7.03617 7.94458L6.78169 6.86708L7.9296 7.73039L9.1595 7.78012ZM20.9561 21.5448L19.7845 23.4963L17.2445 24.1233L18.9394 26.1583L18.7372 28.825L21.1534 27.8041L23.5696 28.825L23.3675 26.1583L25.0623 24.1233L22.5224 23.4963L21.1534 21.2162L20.9561 21.5448ZM20.1295 23.8269L21.1534 22.1215L22.2269 23.9094L24.2229 24.4021L22.8913 26.001L23.0501 28.0942L21.1534 27.2929L19.2568 28.0942L19.4155 26.001L18.0839 24.4021L20.08 23.9094L20.1295 23.8269ZM21.1534 17.135C25.5771 17.135 29.1632 20.8042 29.1632 25.3305C29.1632 29.8567 25.5771 33.5259 21.1534 33.5259C16.7297 33.5259 13.1437 29.8567 13.1437 25.3305C13.1437 20.8042 16.7297 17.135 21.1534 17.135Z" stroke="#F4AD7B" stroke-width="0.4" mask="url(#path-1-outside-1_445_2832)"/>
</svg>
