<svg width="35" height="32" viewBox="0 0 35 32" fill="none" xmlns="http://www.w3.org/2000/svg">
<path d="M34.4585 12.6106C34.2766 12.4206 33.9777 12.4163 33.7907 12.6006L26.1573 20.1022L18.9663 12.4411L30.7902 0.821496C30.7912 0.820538 30.7917 0.819102 30.7926 0.818144C30.8304 0.780325 30.8587 0.734367 30.8819 0.686015C30.8856 0.678356 30.8927 0.672132 30.896 0.664473C30.8974 0.6616 30.897 0.65825 30.8984 0.655377C30.9201 0.599366 30.9324 0.540961 30.9324 0.481599C30.9324 0.480642 30.9333 0.479206 30.9333 0.478248C30.9333 0.457663 30.9239 0.439472 30.922 0.419365C30.9168 0.378673 30.913 0.337981 30.8979 0.299204C30.8814 0.258034 30.8545 0.224044 30.8285 0.189576C30.8176 0.175693 30.8129 0.158459 30.8002 0.145533C30.7992 0.145055 30.7983 0.144576 30.7978 0.143619C30.7511 0.0957459 30.6949 0.0598408 30.6325 0.034947C30.5782 0.0134043 30.5216 0.000958103 30.4644 0.000479377C30.4635 0.000479377 30.4621 0 30.4611 0H1.06402C0.803351 0 0.591797 0.21447 0.591797 0.478727V28.6805C0.591797 28.9452 0.803351 29.1592 1.06402 29.1592H6.75993L6.70279 29.2861L6.69571 29.3014C6.58757 29.5417 6.53043 29.8113 6.53043 30.0817C6.53043 31.1392 7.37901 32 8.42215 32C9.08939 32 9.71083 31.6371 10.0475 31.0531C10.0485 31.0512 10.0504 31.0497 10.0513 31.0478L11.1615 29.1592H11.2252L10.9863 30.1397C10.9854 30.1445 10.9868 30.1492 10.9858 30.1535L10.982 30.1703C10.9669 30.2555 10.9594 30.3489 10.9594 30.4427C10.9594 31.3011 11.6484 31.9995 12.495 31.9995C13.0801 31.9995 13.6066 31.6687 13.8763 31.1206L13.9027 31.0617C13.9032 31.0598 13.9032 31.0579 13.9037 31.0564L14.314 30.1899C14.3126 30.1985 14.3103 30.2057 14.3093 30.2143C14.306 30.2316 14.3022 30.2517 14.3013 30.2613C14.2937 30.3235 14.2928 30.379 14.2928 30.4427C14.2928 31.3011 14.9817 31.9995 15.8284 31.9995C16.4145 31.9995 16.9405 31.6625 17.195 31.1373C17.1974 31.1335 17.2012 31.1306 17.2035 31.1273L17.9978 29.7835L17.9275 30.1665C17.9256 30.1765 17.9289 30.1856 17.9279 30.1957C17.9123 30.2732 17.8982 30.3513 17.8982 30.4432C17.8982 31.2273 18.5276 31.865 19.3011 31.865C19.8461 31.865 20.3396 31.5423 20.5705 31.0392C20.5714 31.0368 20.5733 31.0354 20.5742 31.0334L21.4894 29.1592H30.7964C31.0575 29.1592 31.2686 28.9452 31.2686 28.6805V16.4127L34.4481 13.2875C34.6355 13.1037 34.6403 12.8007 34.4585 12.6106ZM17.5218 0.958411V6.15499H13.6095V0.958411H17.5218ZM30.3242 28.2003H21.9564L24.8766 22.2187C24.9923 21.9817 24.8965 21.6945 24.6627 21.5772C24.4285 21.4599 24.1456 21.5575 24.03 21.794L20.7641 28.4842C20.7622 28.489 20.7594 28.4933 20.7575 28.4976L19.7276 30.6074C19.7243 30.6146 19.7247 30.6213 19.7219 30.6284L19.7186 30.627C19.6449 30.7989 19.4848 30.9056 19.3007 30.9056C19.048 30.9056 18.8421 30.6974 18.8421 30.4413C18.8421 30.3972 18.8469 30.3795 18.8473 30.3776C18.8488 30.3714 18.8473 30.3661 18.8483 30.3599C18.8502 30.3532 18.8544 30.3479 18.8558 30.3407L19.4083 27.3386C19.4093 27.3348 19.4074 27.331 19.4083 27.3276C19.414 27.2927 19.4088 27.2577 19.4064 27.2228C19.405 27.1955 19.4083 27.1677 19.4022 27.1409C19.3951 27.1127 19.3795 27.0883 19.3682 27.0615C19.3554 27.0318 19.3465 27.0011 19.3281 26.9748C19.3148 26.9557 19.2945 26.9423 19.2785 26.925C19.2516 26.8968 19.227 26.8681 19.1935 26.847C19.1906 26.8451 19.1892 26.8422 19.1864 26.8403C19.1628 26.8259 19.1368 26.823 19.1118 26.813C19.0844 26.8025 19.0608 26.7852 19.0306 26.78C19.0268 26.7795 19.024 26.7809 19.0206 26.78C18.9763 26.7728 18.9328 26.7776 18.8894 26.7828C18.8719 26.7852 18.854 26.7819 18.8374 26.7857C18.8048 26.7938 18.7756 26.812 18.7453 26.8264C18.7203 26.8384 18.6939 26.8456 18.6717 26.8613C18.6551 26.8733 18.6433 26.8915 18.6282 26.9063C18.598 26.9351 18.5673 26.9624 18.5451 26.9987C18.5437 27.0011 18.5409 27.0026 18.5395 27.005L16.3937 30.6342C16.3828 30.6529 16.3814 30.6739 16.3729 30.6936L16.363 30.6897C16.2742 30.8994 16.0594 31.0406 15.8294 31.0406C15.5036 31.0406 15.2382 30.7716 15.2382 30.4413C15.2382 30.4226 15.2382 30.4111 15.2382 30.4015L16.0282 26.5396C16.0305 26.5272 16.0268 26.5147 16.0282 26.5023C16.0324 26.4693 16.0315 26.4372 16.0287 26.4046C16.0263 26.3745 16.0239 26.3462 16.0164 26.3175C16.0084 26.2874 15.9961 26.261 15.9824 26.2333C15.9687 26.2055 15.9555 26.1796 15.937 26.1552C15.9196 26.1313 15.8983 26.1121 15.8766 26.092C15.8525 26.0695 15.828 26.0499 15.7996 26.0331C15.7888 26.0264 15.7822 26.0164 15.7704 26.0107C15.7524 26.0016 15.7335 26.0025 15.7151 25.9968C15.6962 25.9901 15.6816 25.9776 15.6617 25.9733C15.6495 25.9709 15.6372 25.9747 15.6249 25.9733C15.5919 25.969 15.5607 25.97 15.5276 25.9728C15.4988 25.9757 15.4714 25.9781 15.4441 25.9853C15.4138 25.9939 15.386 26.0068 15.3576 26.0207C15.3312 26.0341 15.3066 26.0475 15.283 26.0652C15.2594 26.0834 15.2396 26.105 15.2193 26.1279C15.1976 26.1524 15.1782 26.1768 15.1617 26.205C15.1551 26.216 15.1447 26.2232 15.1395 26.2352L14.0732 28.4866C14.0718 28.49 14.0699 28.4928 14.0685 28.4967L13.0183 30.7132C13.0178 30.7146 13.0178 30.7161 13.0173 30.717C12.9139 30.9166 12.7156 31.0411 12.495 31.0411C12.1692 31.0411 11.9038 30.7721 11.9038 30.4417C11.9038 30.4058 11.9062 30.3704 11.9071 30.3618L11.9392 30.2211L12.9507 26.0743C12.9526 26.0657 12.9503 26.0576 12.9517 26.049C12.9578 26.0159 12.9564 25.9834 12.9559 25.9503C12.9555 25.9202 12.9569 25.8919 12.9512 25.8627C12.9451 25.833 12.9323 25.8067 12.921 25.778C12.9092 25.7493 12.8997 25.7215 12.8823 25.6956C12.8667 25.6712 12.845 25.6521 12.8246 25.631C12.802 25.6071 12.7803 25.5831 12.7524 25.5645C12.7453 25.5592 12.7415 25.552 12.7335 25.5472C12.7127 25.5348 12.6891 25.5329 12.6669 25.5233C12.6457 25.5142 12.6282 25.4994 12.6051 25.4936C12.5966 25.4917 12.589 25.4941 12.581 25.4927C12.547 25.4855 12.5139 25.4869 12.4799 25.4879C12.4516 25.4888 12.4242 25.4869 12.3978 25.4927C12.3675 25.4994 12.3406 25.5123 12.3128 25.5243C12.2844 25.5358 12.257 25.5458 12.232 25.5626C12.2089 25.5784 12.1909 25.5994 12.1706 25.6191C12.1461 25.643 12.122 25.666 12.1026 25.6952C12.0979 25.7019 12.0908 25.7057 12.0866 25.7129L9.24098 30.5566C9.2405 30.5576 9.2405 30.559 9.24003 30.5605C9.23909 30.5619 9.23767 30.5624 9.2372 30.5638C9.06956 30.8582 8.75742 31.0411 8.42309 31.0411C7.90081 31.0411 7.47582 30.6103 7.47582 30.0803C7.47582 29.9463 7.50368 29.8132 7.55279 29.7035L7.55609 29.6964C7.55609 29.6959 7.55657 29.6954 7.55657 29.6949L7.56129 29.6844L7.60001 29.6016C7.60095 29.5987 7.60095 29.5958 7.6019 29.5934L12.3935 18.914C12.3987 18.9025 12.3973 18.8896 12.402 18.8781C12.4129 18.8475 12.419 18.8159 12.4237 18.7833C12.428 18.7532 12.4318 18.7244 12.4303 18.6943C12.4294 18.6646 12.4228 18.6373 12.4162 18.6081C12.4086 18.5751 12.3997 18.544 12.386 18.5138C12.3808 18.5028 12.3808 18.4903 12.3751 18.4798C12.3666 18.4645 12.352 18.4554 12.342 18.441C12.3232 18.4142 12.3028 18.3903 12.2788 18.3673C12.2547 18.3448 12.2292 18.3271 12.2008 18.3103C12.1862 18.3012 12.1758 18.2878 12.1598 18.2802C12.1484 18.2749 12.1362 18.2759 12.1243 18.2716C12.0941 18.2605 12.0634 18.2543 12.0313 18.2495C12.0011 18.2447 11.9723 18.2409 11.9425 18.2424C11.9137 18.2438 11.8868 18.25 11.8585 18.2567C11.8264 18.2644 11.7962 18.273 11.7659 18.2869C11.7546 18.2926 11.7423 18.2926 11.7315 18.2984L8.04673 20.4186C8.04484 20.4196 8.04437 20.4215 8.04248 20.4225C8.04106 20.4234 8.03917 20.4234 8.03776 20.4244C8.01934 20.4354 7.99762 20.4464 7.95701 20.468C7.60945 20.6676 7.13676 20.7772 6.62629 20.7772C5.53499 20.7772 4.83894 20.2755 4.83894 19.9299C4.83894 19.7882 4.94802 19.6268 5.11897 19.5009L5.28283 19.3927L12.2637 14.8338H17.2659C17.5265 14.8338 17.7381 14.6194 17.7381 14.3551C17.7381 14.0908 17.5265 13.8764 17.2659 13.8764H12.1187C12.1012 13.8764 12.0866 13.8845 12.0696 13.8864C12.0474 13.8888 12.0266 13.8941 12.0044 13.8998C11.9633 13.9104 11.9251 13.9247 11.8892 13.9453C11.8812 13.9496 11.8727 13.9501 11.8651 13.9549L4.76905 18.5885C4.76905 18.5885 4.76905 18.589 4.76858 18.589C4.76811 18.5894 4.76764 18.589 4.76764 18.5894L4.58441 18.711C4.13911 19.038 3.89403 19.4703 3.89403 19.9294C3.89403 20.9409 5.09394 21.7342 6.62582 21.7342C7.29637 21.7342 7.93434 21.58 8.40278 21.3105C8.44009 21.2914 8.47598 21.2722 8.50856 21.2531C8.50998 21.2521 8.51139 21.2521 8.51281 21.2512L10.932 19.859L7.19012 28.1994H1.53624V0.95506H12.665V6.63228C12.665 6.89653 12.8766 7.111 13.1373 7.111H17.994C18.2547 7.111 18.4663 6.89653 18.4663 6.63228V0.956496H29.2957L17.9761 12.0802L17.9733 12.0831C17.952 12.1041 17.9412 12.1309 17.9246 12.1549C17.9053 12.1826 17.8812 12.2075 17.8684 12.2382C17.8552 12.2688 17.8538 12.3018 17.8477 12.3339C17.842 12.3622 17.8311 12.389 17.8302 12.4172C17.8297 12.4507 17.8406 12.4833 17.8467 12.5168C17.8519 12.5441 17.851 12.5718 17.8609 12.5982C17.8717 12.6274 17.8939 12.6513 17.9105 12.6786C17.927 12.7049 17.9374 12.7341 17.9596 12.7576L25.8017 21.1128C25.8022 21.1133 25.8031 21.1138 25.8041 21.1142C25.8046 21.1147 25.8046 21.1157 25.805 21.1161C25.8348 21.1473 25.8721 21.1655 25.907 21.186C25.9264 21.1975 25.942 21.2157 25.9618 21.2243C26.0199 21.2488 26.0822 21.2612 26.1441 21.2612C26.2031 21.2612 26.2617 21.2502 26.3174 21.2277C26.3344 21.221 26.3481 21.2062 26.3646 21.1975C26.401 21.1779 26.4383 21.1602 26.4699 21.1296C26.4704 21.1291 26.4709 21.1281 26.4713 21.1272C26.4718 21.1267 26.4727 21.1267 26.4732 21.1262L30.3246 17.3409L30.3242 28.2003Z" fill="#F4AD7B"/>
</svg>
